#!OML:ASF I:\Actors\actors\Patient Classification 1\Patient 1\Session 1\Subject1.ASF
:FULLY-SPECIFIED
:DEGREES
293
root 0.615939 17.4635 9.61447 7.2609 -3.00785 -9.25
lowerback -2.5745 2.10913 7.47917
upperback -8.88897 3.0721 1.45145
thorax -7.62897 1.05821 -2.75318
lowerneck -13.6014 -2.569 1.00512
upperneck 34.4985 -4.57029 1.09581
head 14.0378 -1.71007 -0.456888
rclavicle -5.36719e-015 -1.31198e-014
rhumerus 35.4363 30.1605 -26.955
rradius 99.1752
rwrist 38.8197
rhand -17.3851 -21.9046
rfingers 7.12502
rthumb 8.86373 -51.6984
lclavicle -5.36719e-015 -1.31198e-014
lhumerus -42.7205 -16.2236 103.683
lradius 100.189
lwrist 21.6576
lhand -27.7199 -3.85162
lfingers 7.12502
lthumb -1.11534 26.1252
rfemur -4.58755 19.8641 26.7847
rtibia 10.4664
rfoot -14.5362 -20.1971
rtoes 1.272
lfemur 11.56 -43.8324 -16.5512
ltibia -4.95299
lfoot -27.7475 53.5739
ltoes 15.6082
294
root 0.615244 17.4648 9.60614 7.23574 -2.93859 -9.22817
lowerback -2.4764 2.08969 7.47175
upperback -8.87967 3.05401 1.4282
thorax -7.67645 1.04718 -2.77693
lowerneck -13.61 -2.60228 0.919998
upperneck 34.4007 -4.65161 1.26384
head 14.0045 -1.73524 -0.386735
rclavicle 1.58034e-014 -3.97569e-015
rhumerus 35.5576 29.8372 -26.7727
rradius 99.1368
rwrist 38.7799
rhand -17.2732 -21.9205
rfingers 7.12502
rthumb 8.97169 -51.7098
lclavicle 1.58034e-014 -3.97569e-015
lhumerus -42.6142 -16.318 103.634
lradius 100.134
lwrist 21.6923
lhand -27.7806 -3.84347
lfingers 7.12502
lthumb -1.17405 26.133
rfemur -4.49727 19.9321 26.786
rtibia 10.3181
rfoot -14.5403 -20.3261
rtoes 1.63947
lfemur 11.4076 -43.6472 -16.4296
ltibia -4.9241
lfoot -27.4128 53.3836
ltoes 15.3834
295
root 0.615815 17.4658 9.59975 7.20112 -2.88772 -9.18468
lowerback -1.76518 2.15716 7.67538
upperback -9.32663 3.235 1.19908
thorax -8.55202 1.06704 -3.17617
lowerneck -13.284 -2.7304 0.894828
upperneck 34.6492 -4.93619 1.52968
head 14.0565 -1.82445 -0.315941
rclavicle -7.55382e-015 2.0276e-014
rhumerus 34.8665 30.0274 -26.9993
rradius 99.1622
rwrist 38.8155
rhand -17.203 -21.961
rfingers 7.12502
rthumb 9.03946 -51.7473
lclavicle -7.55382e-015 2.0276e-014
lhumerus -43.3916 -16.584 103.757
lradius 100.203
lwrist 21.6854
lhand -27.7773 -3.79967
lfingers 7.12502
lthumb -1.17081 26.1769
rfemur -4.37856 20.0104 26.7647
rtibia 10.1604
rfoot -14.5687 -20.4624
rtoes 1.78795
lfemur 11.3547 -43.6288 -16.4523
ltibia -4.86745
lfoot -27.4029 53.2932
ltoes 15.4032
296
root 0.617094 17.4665 9.59505 7.21367 -2.84357 -9.14919
lowerback -1.5597 2.17254 7.72649
upperback -9.48039 3.28284 1.12345
thorax -8.83446 1.06799 -3.29892
lowerneck -13.2041 -2.78397 0.833455
upperneck 34.7234 -5.06416 1.70476
head 14.0821 -1.86342 -0.253875
rclavicle -8.54774e-015 1.03368e-014
rhumerus 34.7578 29.9713 -26.9226
rradius 99.1115
rwrist 38.7713
rhand -17.219 -21.9651
rfingers 7.12502
rthumb 9.02402 -51.7521
lclavicle -8.54774e-015 1.03368e-014
lhumerus -43.5896 -16.6539 103.778
lradius 100.243
lwrist 21.6619
lhand -27.7532 -3.83901
lfingers 7.12502
lthumb -1.14759 26.1376
rfemur -4.32542 20.0362 26.7229
rtibia 10.0191
rfoot -14.5361 -20.548
rtoes 1.77797
lfemur 11.2992 -43.7276 -16.4852
ltibia -4.82716
lfoot -27.3882 53.3075
ltoes 15.5349
297
root 0.617454 17.4674 9.59098 7.22917 -2.80219 -9.14409
lowerback -1.76694 2.1406 7.65217
upperback -9.34236 3.21222 1.18664
thorax -8.57108 1.05598 -3.17578
lowerneck -13.3022 -2.77027 0.815338
upperneck 34.5678 -5.04309 1.73227
head 14.0351 -1.85489 -0.237289
rclavicle 9.24349e-015 2.18663e-014
rhumerus 35.1648 29.644 -26.609
rradius 98.9969
rwrist 38.6233
rhand -17.2494 -21.8808
rfingers 7.12502
rthumb 8.99473 -51.6691
lclavicle 9.24349e-015 2.18663e-014
lhumerus -43.2002 -16.5933 103.701
lradius 100.192
lwrist 21.6265
lhand -27.7883 -4.08717
lfingers 7.12502
lthumb -1.18146 25.8893
rfemur -4.27672 20.0316 26.7141
rtibia 9.87255
rfoot -14.4248 -20.5903
rtoes 1.58459
lfemur 11.2381 -43.7734 -16.4524
ltibia -4.8273
lfoot -27.2472 53.3303
ltoes 15.445
298
root 0.616766 17.4685 9.58679 7.2273 -2.791 -9.16398
lowerback -2.35216 2.0595 7.44373
upperback -8.91325 3.02565 1.3915
thorax -7.78758 1.0287 -2.80488
lowerneck -13.6248 -2.69454 0.823862
upperneck 34.2592 -4.88785 1.62863
head 13.9625 -1.80293 -0.26021
rclavicle -3.97569e-015 -4.37326e-015
rhumerus 36.1043 29.043 -26.0158
rradius 98.8623
rwrist 38.4753
rhand -17.1609 -21.7458
rfingers 7.12502
rthumb 9.08007 -51.5304
lclavicle -3.97569e-015 -4.37326e-015
lhumerus -42.2806 -16.3656 103.524
lradius 100.076
lwrist 21.5574
lhand -27.7894 -4.27977
lfingers 7.12502
lthumb -1.18252 25.6967
rfemur -4.21284 20.0693 26.7439
rtibia 9.73015
rfoot -14.3279 -20.6473
rtoes 1.46102
lfemur 11.2214 -43.8116 -16.4164
ltibia -4.8213
lfoot -27.339 53.3335
ltoes 15.5405
299
root 0.615829 17.4689 9.58203 7.25044 -2.79238 -9.18711
lowerback -1.96801 2.13056 7.61319
upperback -9.20971 3.17389 1.2596
thorax -8.31414 1.05679 -3.06424
lowerneck -13.4225 -2.81292 0.716323
upperneck 34.419 -5.11227 1.83748
head 14.0027 -1.88515 -0.190222
rclavicle -4.96962e-016 5.56597e-015
rhumerus 35.652 29.1875 -26.1717
rradius 98.8835
rwrist 38.4673
rhand -17.0998 -21.6903
rfingers 7.12502
rthumb 9.13909 -51.4723
lclavicle -4.96962e-016 5.56597e-015
lhumerus -42.7364 -16.528 103.611
lradius 100.1
lwrist 21.4892
lhand -27.7448 -4.21367
lfingers 7.12502
lthumb -1.13943 25.763
rfemur -4.21677 20.1354 26.767
rtibia 9.66465
rfoot -14.2983 -20.7142
rtoes 1.60868
lfemur 11.1754 -43.8638 -16.3556
ltibia -4.80671
lfoot -27.5481 53.3239
ltoes 15.8012
300
root 0.614976 17.4688 9.57664 7.29634 -2.79704 -9.18672
lowerback -2.41222 2.11669 7.4653
upperback -8.9349 3.09766 1.38134
thorax -7.76805 1.06286 -2.82772
lowerneck -13.6837 -2.81582 0.527211
upperneck 34.2612 -5.09129 1.92867
head 13.999 -1.88771 -0.121678
rclavicle 4.47266e-015 -1.35174e-014
rhumerus 36.189 28.768 -25.8064
rradius 98.8412
rwrist 38.4563
rhand -17.0898 -21.7718
rfingers 7.12502
rthumb 9.14873 -51.5533
lclavicle 4.47266e-015 -1.35174e-014
lhumerus -42.0794 -16.4386 103.521
lradius 99.9989
lwrist 21.4161
lhand -27.7019 -4.0714
lfingers 7.12502
lthumb -1.09802 25.9055
rfemur -4.26955 20.2254 26.7572
rtibia 9.64627
rfoot -14.2967 -20.7685
rtoes 1.87331
lfemur 11.0658 -43.8348 -16.2596
ltibia -4.81235
lfoot -27.5595 53.3116
ltoes 15.7859
301
root 0.614495 17.4684 9.57109 7.30396 -2.81666 -9.18385
lowerback -2.42686 2.14403 7.45135
upperback -8.94025 3.13231 1.37192
thorax -7.76173 1.0808 -2.83054
lowerneck -13.7171 -2.85635 0.411245
upperneck 34.313 -5.18291 2.10015
head 14.0416 -1.91728 -0.0480934
rclavicle -1.70955e-014 4.17448e-014
rhumerus 36.2286 28.6699 -25.7447
rradius 98.7955
rwrist 38.4538
rhand -16.9735 -21.9697
rfingers 7.12502
rthumb 9.26093 -51.7463
lclavicle -1.70955e-014 4.17448e-014
lhumerus -41.985 -16.4728 103.497
lradius 99.9305
lwrist 21.3717
lhand -27.5976 -3.94951
lfingers 7.12502
lthumb -0.997264 26.0279
rfemur -4.25867 20.3431 26.7632
rtibia 9.59482
rfoot -14.2985 -20.8285
rtoes 2.23078
lfemur 10.9943 -43.7334 -16.1906
ltibia -4.81755
lfoot -27.5008 53.2608
ltoes 15.7666
